<svg xmlns="http://www.w3.org/2000/svg" width="480pt" height="290pt" viewBox="0 0 480 290" version="1.1" xmlns:xlink="http://www.w3.org/1999/xlink">
  <g id="surface2" transform="matrix(1,0,0,1,0,0)">
    <path style="stroke:none;fill-rule:evenodd;fill:rgb(49.411765%,65.882353%,19.215686%);fill-opacity:1" d="M 288.949219 92.199219 C 287.617188 96.066406 285.832031 99.351562 283.601562 102.050781 C 279.667969 106.750000 274.898438 110.464844 269.300781 113.199219 C 263.699219 115.933594 257.066406 117.765625 249.398438 118.699219 L 245.898438 119.148438 L 248.851562 121.101562 C 253.785156 124.398438 258.566406 126.867188 263.199219 128.500000 C 267.832031 130.132812 272.382812 130.949219 276.851562 130.949219 C 279.082031 130.949219 281.351562 130.750000 283.648438 130.351562 C 287.015625 129.714844 290.183594 128.433594 293.148438 126.500000 C 296.148438 124.566406 299.000000 122.250000 301.699219 119.550781 C 304.398438 116.882812 307.035156 114.101562 309.601562 111.199219 L 309.750000 111.050781 C 311.683594 108.917969 313.566406 106.898438 315.398438 105.000000 L 316.699219 103.699219 L 315.050781 102.898438 C 312.785156 101.800781 310.464844 100.617188 308.101562 99.351562 L 307.898438 99.250000 C 305.066406 97.750000 302.199219 96.300781 299.300781 94.898438 C 296.398438 93.500000 293.500000 92.332031 290.601562 91.398438 L 289.351562 91.000000 L 288.949219 92.199219 "/>
    <path style="stroke:none;fill-rule:evenodd;fill:rgb(67.843137%,76.470588%,16.862745%);fill-opacity:1" d="M 282.000000 90.550781 C 280.632812 90.550781 279.316406 90.667969 278.050781 90.898438 C 276.117188 91.199219 274.000000 91.714844 271.699219 92.449219 C 269.398438 93.214844 266.949219 94.367188 264.351562 95.898438 C 261.785156 97.433594 259.101562 99.550781 256.300781 102.250000 C 253.167969 105.250000 250.101562 108.933594 247.101562 113.300781 L 245.500000 115.648438 L 248.699219 115.300781 C 256.199219 114.535156 262.632812 112.898438 268.000000 110.398438 C 273.398438 107.898438 277.949219 104.433594 281.648438 100.000000 C 283.382812 97.933594 284.800781 95.417969 285.898438 92.449219 L 286.500000 90.851562 L 284.800781 90.699219 C 283.832031 90.601562 282.898438 90.550781 282.000000 90.550781 "/>
    <path style="stroke:none;fill-rule:evenodd;fill:rgb(100.000000%,76.078431%,5.490196%);fill-opacity:1" d="M 287.699219 60.648438 C 285.265625 61.250000 282.750000 61.832031 280.148438 62.398438 L 279.898438 62.449219 C 277.101562 63.050781 274.117188 63.750000 270.949219 64.550781 C 267.785156 65.351562 264.714844 66.332031 261.750000 67.500000 L 260.601562 68.000000 L 261.050781 69.199219 C 262.382812 72.832031 263.050781 76.351562 263.050781 79.750000 C 263.050781 83.785156 262.550781 87.683594 261.550781 91.449219 L 260.750000 94.398438 L 263.449219 92.949219 C 267.550781 90.714844 272.035156 89.167969 276.898438 88.300781 C 278.398438 88.066406 279.964844 87.949219 281.601562 87.949219 C 283.000000 87.917969 284.464844 88.015625 286.000000 88.250000 L 287.250000 88.398438 L 287.500000 87.148438 C 287.964844 84.449219 288.285156 81.699219 288.449219 78.898438 C 288.648438 76.066406 288.800781 73.265625 288.898438 70.500000 C 289.000000 67.632812 289.148438 64.800781 289.351562 62.000000 L 289.500000 60.199219 L 287.699219 60.648438 "/>
    <path style="stroke:none;fill-rule:evenodd;fill:rgb(98.039216%,65.098039%,10.196078%);fill-opacity:1" d="M 257.648438 70.050781 L 256.250000 71.000000 C 254.082031 72.433594 252.332031 73.949219 251.000000 75.550781 C 249.601562 77.183594 248.214844 79.148438 246.851562 81.449219 C 245.484375 83.714844 244.300781 86.484375 243.300781 89.750000 C 242.332031 93.015625 241.699219 96.898438 241.398438 101.398438 C 241.332031 102.300781 241.316406 103.449219 241.351562 104.851562 C 241.382812 106.285156 241.464844 107.851562 241.601562 109.550781 C 241.734375 111.250000 241.933594 112.984375 242.199219 114.750000 L 243.949219 113.000000 C 247.617188 109.199219 250.617188 105.449219 252.949219 101.750000 C 255.183594 98.214844 256.867188 94.617188 258.000000 90.949219 C 259.101562 87.316406 259.648438 83.582031 259.648438 79.750000 C 259.648438 77.183594 259.167969 74.500000 258.199219 71.699219 L 257.648438 70.050781 "/>
    <path style="stroke:none;fill-rule:evenodd;fill:rgb(93.725490%,25.490196%,13.725490%);fill-opacity:1" d="M 238.949219 45.500000 C 238.183594 46.566406 237.382812 47.632812 236.550781 48.699219 C 235.714844 49.800781 234.816406 50.984375 233.851562 52.250000 C 232.082031 54.515625 230.351562 56.816406 228.648438 59.148438 C 226.949219 61.484375 225.398438 63.867188 224.000000 66.300781 L 223.398438 67.398438 L 224.449219 68.050781 C 227.316406 69.816406 229.683594 71.832031 231.550781 74.101562 C 234.648438 77.765625 237.050781 81.683594 238.750000 85.851562 L 239.949219 88.851562 L 241.199219 85.851562 C 242.898438 81.683594 245.285156 77.765625 248.351562 74.101562 C 250.250000 71.832031 252.632812 69.800781 255.500000 68.000000 L 256.550781 67.351562 L 255.949219 66.250000 C 254.550781 63.785156 252.984375 61.351562 251.250000 58.949219 C 249.515625 56.550781 247.734375 54.199219 245.898438 51.898438 C 244.167969 49.632812 242.566406 47.484375 241.101562 45.449219 L 240.000000 44.000000 L 238.949219 45.500000 "/>
    <path style="stroke:none;fill-rule:evenodd;fill:rgb(95.294118%,43.921569%,12.941176%);fill-opacity:1" d="M 221.800781 71.699219 C 220.832031 74.500000 220.351562 77.183594 220.351562 79.750000 C 220.351562 83.582031 220.898438 87.316406 222.000000 90.949219 C 223.101562 94.617188 224.765625 98.214844 227.000000 101.750000 C 229.332031 105.449219 232.351562 109.199219 236.050781 113.000000 L 237.750000 114.750000 C 238.015625 112.984375 238.214844 111.250000 238.351562 109.550781 C 238.515625 107.851562 238.601562 106.285156 238.601562 104.851562 C 238.632812 103.449219 238.632812 102.300781 238.601562 101.398438 C 238.300781 96.898438 237.648438 93.015625 236.648438 89.750000 C 235.683594 86.515625 234.515625 83.750000 233.148438 81.449219 C 231.785156 79.148438 230.398438 77.183594 229.000000 75.550781 C 227.632812 73.949219 225.882812 72.433594 223.750000 71.000000 L 222.351562 70.050781 L 221.800781 71.699219 "/>
    <path style="stroke:none;fill-rule:evenodd;fill:rgb(58.039216%,0.000000%,23.137255%);fill-opacity:1" d="M 198.398438 87.851562 C 200.000000 87.882812 201.550781 88.015625 203.050781 88.250000 C 207.949219 89.117188 212.484375 90.683594 216.648438 92.949219 L 219.351562 94.449219 L 218.550781 91.449219 C 217.449219 87.617188 216.898438 83.699219 216.898438 79.699219 C 216.898438 76.300781 217.582031 72.785156 218.949219 69.148438 L 219.398438 67.949219 L 218.199219 67.449219 C 215.265625 66.285156 212.214844 65.300781 209.050781 64.500000 C 205.882812 63.699219 202.898438 63.000000 200.101562 62.398438 L 199.851562 62.351562 C 197.214844 61.785156 194.683594 61.199219 192.250000 60.601562 L 190.500000 60.148438 L 190.648438 61.949219 C 190.851562 64.750000 191.000000 67.582031 191.101562 70.449219 C 191.199219 73.250000 191.332031 76.050781 191.500000 78.851562 C 191.699219 81.683594 192.035156 84.433594 192.500000 87.101562 L 192.750000 88.351562 L 193.949219 88.199219 C 195.515625 87.964844 197.000000 87.851562 198.398438 87.851562 "/>
    <path style="stroke:none;fill-rule:evenodd;fill:rgb(95.686275%,60.392157%,75.686275%);fill-opacity:1" d="M 197.949219 90.550781 C 197.050781 90.550781 196.117188 90.601562 195.148438 90.699219 L 193.449219 90.851562 L 194.050781 92.449219 C 195.148438 95.417969 196.566406 97.933594 198.300781 100.000000 C 202.000000 104.433594 206.566406 107.898438 212.000000 110.398438 C 217.398438 112.933594 223.867188 114.582031 231.398438 115.351562 L 234.199219 115.648438 L 232.851562 113.300781 C 230.015625 109.234375 227.132812 105.714844 224.199219 102.750000 C 221.332031 99.917969 218.566406 97.699219 215.898438 96.101562 C 213.234375 94.500000 210.734375 93.300781 208.398438 92.500000 C 206.035156 91.734375 203.867188 91.199219 201.898438 90.898438 C 200.632812 90.667969 199.316406 90.550781 197.949219 90.550781 "/>
    <path style="stroke:none;fill-rule:evenodd;fill:rgb(93.725490%,35.686275%,60.000000%);fill-opacity:1" d="M 189.351562 91.398438 C 186.449219 92.332031 183.550781 93.500000 180.648438 94.898438 C 177.750000 96.300781 174.882812 97.750000 172.050781 99.250000 L 171.851562 99.351562 C 169.449219 100.617188 167.132812 101.800781 164.898438 102.898438 L 163.250000 103.699219 L 164.500000 105.000000 C 166.367188 106.898438 168.250000 108.917969 170.148438 111.050781 L 170.300781 111.199219 C 172.898438 114.101562 175.550781 116.882812 178.250000 119.550781 C 180.949219 122.250000 183.800781 124.566406 186.800781 126.500000 C 189.765625 128.433594 192.933594 129.714844 196.300781 130.351562 C 198.566406 130.750000 200.832031 130.949219 203.101562 130.949219 C 207.566406 130.949219 212.117188 130.132812 216.750000 128.500000 C 221.382812 126.867188 226.167969 124.398438 231.101562 121.101562 L 234.050781 119.148438 L 230.550781 118.699219 C 222.882812 117.765625 216.250000 115.933594 210.648438 113.199219 C 205.050781 110.464844 200.285156 106.750000 196.351562 102.050781 C 194.082031 99.351562 192.300781 96.066406 191.000000 92.199219 L 190.601562 91.000000 L 189.351562 91.398438 "/>
  </g>
  <g id="surface4">
    <text style="fill:rgb(88,89,91)" font-family="Futura Md BT" font-size="50" transform="matrix(1,0,0,1,125.156248,187.25)" xml:space="preserve"><![CDATA[Mediserve]]></text>
    <text style="fill:rgb(126,168,49)" font-family="Marketing Script" font-size="35" transform="matrix(0.6513057961462345,-0.004438083378970386,0.004438083378970386,0.6513057961462345,245.71759382782835,216.79000865969803)" xml:space="preserve"><![CDATA[Service for life]]></text>
  </g>
</svg>